<svg width="30" height="30" viewBox="0 0 30 30" fill="none" xmlns="http://www.w3.org/2000/svg">
<path d="M16.8495 12.3539C14.817 11.5989 13.7095 11.0202 13.7095 10.1002C13.7095 9.3227 14.3483 8.87895 15.4883 8.87895C17.572 8.87895 19.712 9.68145 21.1858 10.4039L22.0183 5.2652C20.8495 4.7077 18.4595 3.79395 15.1558 3.79395C12.8183 3.79395 10.8745 4.4052 9.48578 5.5452C8.04203 6.73769 7.28953 8.4627 7.28953 10.5452C7.28953 14.3239 9.59828 15.9352 13.3483 17.2989C15.7683 18.1589 16.572 18.7714 16.572 19.7164C16.572 20.6314 15.7858 21.1602 14.3695 21.1602C12.6158 21.1602 9.72453 20.2989 7.83078 19.1877L6.98828 24.3839C8.61828 25.2989 11.6195 26.2439 14.7345 26.2439C17.2045 26.2439 19.2645 25.6602 20.6533 24.5489C22.2095 23.3277 23.0158 21.5214 23.0158 19.1877C23.0158 15.3239 20.6545 13.7127 16.847 12.3527H16.8495V12.3539Z" fill="white"/>
</svg>
